<svg xmlns="http://www.w3.org/2000/svg" width="53" height="53">
    <defs>
        <linearGradient id="a" x1="0%" y1="0%" y2="0%">
            <stop offset="0%" stop-color="#1E649A" stop-opacity=".4"/>
            <stop offset="100%" stop-color="#1E649A" stop-opacity="0"/>
        </linearGradient>
    </defs>
    <path fill="#83688A" fill-rule="evenodd" d="M41 5.375V1.031h1.969v4.344H41zM4.344 41.906v2.063H0v-2.063h4.344z"/>
    <path fill="#F11D25" fill-rule="evenodd" d="M18.207 44H.483l-.059-.059L42.969 1.397v17.841L18.207 44z"/>
    <path fill="url(#a)" d="M18.207 44H.483l-.059-.059L42.969 1.397v17.841L18.207 44z"/>
    <path fill="#FFF" fill-rule="evenodd" d="M39.946 18.369a3.545 3.545 0 0 1-.795 1.155c-.393.393-.799.669-1.219.829a2.761 2.761 0 0 1-1.266.176 3.298 3.298 0 0 1-1.273-.412 5.484 5.484 0 0 1-1.233-.946 5.263 5.263 0 0 1-.972-1.288 3.317 3.317 0 0 1-.382-1.296 2.75 2.75 0 0 1 .206-1.251c.167-.407.431-.792.795-1.156.387-.387.792-.662 1.214-.824a2.803 2.803 0 0 1 1.274-.184c.427.039.852.175 1.277.409a5.53 5.53 0 0 1 1.233.945c.422.422.746.852.971 1.289.226.436.352.869.379 1.299.027.429-.042.848-.209 1.255zm-1.922-3.062a4.428 4.428 0 0 0-.866-.683 2.861 2.861 0 0 0-.923-.363 1.987 1.987 0 0 0-.92.036c-.304.084-.591.261-.861.531-.471.471-.679 1.011-.625 1.62.054.608.424 1.256 1.111 1.943.278.278.569.508.874.69.305.182.613.303.923.363.31.06.616.047.917-.04.301-.086.584-.262.849-.527.476-.476.689-1.016.64-1.62-.049-.603-.422-1.254-1.119-1.95zm-5.207 5.782a3.04 3.04 0 0 1-.398 1.001 4.874 4.874 0 0 1-.857 1.041l-.199.184a6.331 6.331 0 0 1-.353.302l1.928 1.929-.736.736-5.101-5.101c.162-.251.356-.506.581-.766.226-.26.457-.508.692-.743.251-.251.527-.482.828-.696.302-.213.617-.367.946-.46a2.06 2.06 0 0 1 1.009-.029c.343.073.679.274 1.008.603.309.309.512.635.607.975.096.342.111.683.045 1.024zm-1.009-.537c-.054-.227-.192-.451-.415-.674-.193-.193-.395-.311-.604-.353a1.28 1.28 0 0 0-.621.026c-.205.06-.403.159-.594.297a4.347 4.347 0 0 0-.53.449c-.132.133-.259.264-.379.394s-.205.239-.254.327l1.951 1.952a.589.589 0 0 0 .14-.103c.059-.054.121-.11.187-.166.067-.057.128-.113.184-.17l.129-.128c.177-.177.338-.364.483-.563.145-.198.249-.406.311-.623a1.27 1.27 0 0 0 .012-.665zm-2.661 5.892c.226.437.352.87.379 1.299.027.429-.043.848-.209 1.255a3.56 3.56 0 0 1-.795 1.156c-.393.392-.799.668-1.219.828a2.761 2.761 0 0 1-1.266.176 3.298 3.298 0 0 1-1.273-.412 5.461 5.461 0 0 1-1.233-.946 5.263 5.263 0 0 1-.972-1.288 3.314 3.314 0 0 1-.383-1.295c-.029-.427.04-.844.207-1.252.166-.407.431-.792.795-1.155.387-.388.792-.663 1.214-.825a2.803 2.803 0 0 1 1.274-.184 3.27 3.27 0 0 1 1.277.409c.424.233.835.548 1.233.946.422.422.745.851.971 1.288zm-2.618-1.191a2.861 2.861 0 0 0-.923-.363 1.992 1.992 0 0 0-.921.036c-.303.084-.59.261-.86.531-.471.471-.679 1.011-.625 1.62.054.608.424 1.256 1.111 1.943.278.278.569.508.874.69.305.182.613.303.923.363.31.06.616.047.917-.04.301-.086.584-.262.849-.527.476-.476.689-1.016.64-1.62-.049-.603-.422-1.253-1.119-1.95a4.428 4.428 0 0 0-.866-.683zm-1.43 8.132l-.928.928-4.335-.346-.361.36 2.341 2.341-.736.736-5.153-5.153.736-.736 2.37 2.371.236-.442-.412-4.122.839-.839.353 4.063-.096.596.7-.11 4.446.353zm-11.005 5.852c.334.334.674.58 1.02.74.346.159.685.241 1.019.246.334.005.655-.061.964-.198.31-.138.597-.339.862-.604.24-.24.427-.471.559-.692.133-.221.226-.427.28-.618l.743.39c-.044.28-.168.568-.371.865a6.217 6.217 0 0 1-.725.865 3.951 3.951 0 0 1-1.097.78 3.045 3.045 0 0 1-1.27.298 3.3 3.3 0 0 1-1.369-.294c-.469-.204-.934-.537-1.395-.998-.481-.481-.817-.964-1.009-1.45-.191-.486-.276-.953-.253-1.402.022-.449.131-.87.327-1.263a3.9 3.9 0 0 1 .729-1.023c.324-.324.606-.571.846-.743.241-.172.459-.302.655-.39l.472.795c-.354.127-.776.436-1.267.927-.22.221-.399.471-.537.751-.137.28-.208.582-.213.905-.005.324.072.664.232 1.02.159.356.425.72.798 1.093z"/>
    <path fill="#FFF" fill-rule="evenodd" d="M39.946 18.369a3.545 3.545 0 0 1-.795 1.155c-.393.393-.799.669-1.219.829a2.761 2.761 0 0 1-1.266.176 3.298 3.298 0 0 1-1.273-.412 5.484 5.484 0 0 1-1.233-.946 5.263 5.263 0 0 1-.972-1.288 3.317 3.317 0 0 1-.382-1.296 2.75 2.75 0 0 1 .206-1.251c.167-.407.431-.792.795-1.156.387-.387.792-.662 1.214-.824a2.803 2.803 0 0 1 1.274-.184c.427.039.852.175 1.277.409a5.53 5.53 0 0 1 1.233.945c.422.422.746.852.971 1.289.226.436.352.869.379 1.299.027.429-.042.848-.209 1.255zm-1.922-3.062a4.428 4.428 0 0 0-.866-.683 2.861 2.861 0 0 0-.923-.363 1.987 1.987 0 0 0-.92.036c-.304.084-.591.261-.861.531-.471.471-.679 1.011-.625 1.62.054.608.424 1.256 1.111 1.943.278.278.569.508.874.69.305.182.613.303.923.363.31.06.616.047.917-.04.301-.086.584-.262.849-.527.476-.476.689-1.016.64-1.62-.049-.603-.422-1.254-1.119-1.95zm-5.207 5.782a3.04 3.04 0 0 1-.398 1.001 4.874 4.874 0 0 1-.857 1.041l-.199.184a6.331 6.331 0 0 1-.353.302l1.928 1.929-.736.736-5.101-5.101c.162-.251.356-.506.581-.766.226-.26.457-.508.692-.743.251-.251.527-.482.828-.696.302-.213.617-.367.946-.46a2.06 2.06 0 0 1 1.009-.029c.343.073.679.274 1.008.603.309.309.512.635.607.975.096.342.111.683.045 1.024zm-1.009-.537c-.054-.227-.192-.451-.415-.674-.193-.193-.395-.311-.604-.353a1.28 1.28 0 0 0-.621.026c-.205.06-.403.159-.594.297a4.347 4.347 0 0 0-.53.449c-.132.133-.259.264-.379.394s-.205.239-.254.327l1.951 1.952a.589.589 0 0 0 .14-.103c.059-.054.121-.11.187-.166.067-.057.128-.113.184-.17l.129-.128c.177-.177.338-.364.483-.563.145-.198.249-.406.311-.623a1.27 1.27 0 0 0 .012-.665zm-2.661 5.892c.226.437.352.87.379 1.299.027.429-.043.848-.209 1.255a3.56 3.56 0 0 1-.795 1.156c-.393.392-.799.668-1.219.828a2.761 2.761 0 0 1-1.266.176 3.298 3.298 0 0 1-1.273-.412 5.461 5.461 0 0 1-1.233-.946 5.263 5.263 0 0 1-.972-1.288 3.314 3.314 0 0 1-.383-1.295c-.029-.427.04-.844.207-1.252.166-.407.431-.792.795-1.155.387-.388.792-.663 1.214-.825a2.803 2.803 0 0 1 1.274-.184 3.27 3.27 0 0 1 1.277.409c.424.233.835.548 1.233.946.422.422.745.851.971 1.288zm-2.618-1.191a2.861 2.861 0 0 0-.923-.363 1.992 1.992 0 0 0-.921.036c-.303.084-.59.261-.86.531-.471.471-.679 1.011-.625 1.62.054.608.424 1.256 1.111 1.943.278.278.569.508.874.69.305.182.613.303.923.363.31.06.616.047.917-.04.301-.086.584-.262.849-.527.476-.476.689-1.016.64-1.62-.049-.603-.422-1.253-1.119-1.95a4.428 4.428 0 0 0-.866-.683zm-1.43 8.132l-.928.928-4.335-.346-.361.36 2.341 2.341-.736.736-5.153-5.153.736-.736 2.37 2.371.236-.442-.412-4.122.839-.839.353 4.063-.096.596.7-.11 4.446.353zm-11.005 5.852c.334.334.674.58 1.02.74.346.159.685.241 1.019.246.334.005.655-.061.964-.198.31-.138.597-.339.862-.604.24-.24.427-.471.559-.692.133-.221.226-.427.28-.618l.743.39c-.044.28-.168.568-.371.865a6.217 6.217 0 0 1-.725.865 3.951 3.951 0 0 1-1.097.78 3.045 3.045 0 0 1-1.27.298 3.3 3.3 0 0 1-1.369-.294c-.469-.204-.934-.537-1.395-.998-.481-.481-.817-.964-1.009-1.45-.191-.486-.276-.953-.253-1.402.022-.449.131-.87.327-1.263a3.9 3.9 0 0 1 .729-1.023c.324-.324.606-.571.846-.743.241-.172.459-.302.655-.39l.472.795c-.354.127-.776.436-1.267.927-.22.221-.399.471-.537.751-.137.28-.208.582-.213.905-.005.324.072.664.232 1.02.159.356.425.72.798 1.093z" opacity=".502"/>
</svg>
